PathFileType	4	(X/Y/Z)	c:/Users/goper/Files/vsCode/490R/osim_files/C03/C03_SSW_06.trc
DataRate	CameraRate	NumFrames	NumMarkers	Units                	OrigDataRate	OrigDataStartFrame	OrigNumFrames
250.00	250.00	10	36	mm	250.0	1462	2339
                Frame#	Time	LPSIS			LASIS			LTH1			LTH2			LTH3			LTH4			LLFE			LMFE			LSH1			LSH2			LSH3			LSH4			LLMAL			LMMAL			LCAL			LMTP5			LTOE			LMTP1			RPSIS			RASIS			RTH1			RTH2			RTH3			RTH4			RLFE			RMFE			RSH1			RSH2			RSH3			RSH4			RLMAL			RMMAL			RCAL			RMTP1			RTOE			RMTP5		
		X1	Y1	Z1	X2	Y2	Z2	X3	Y3	Z3	X4	Y4	Z4	X5	Y5	Z5	X6	Y6	Z6	X7	Y7	Z7	X8	Y8	Z8	X9	Y9	Z9	X10	Y10	Z10	X11	Y11	Z11	X12	Y12	Z12	X13	Y13	Z13	X14	Y14	Z14	X15	Y15	Z15	X16	Y16	Z16	X17	Y17	Z17	X18	Y18	Z18	X19	Y19	Z19	X20	Y20	Z20	X21	Y21	Z21	X22	Y22	Z22	X23	Y23	Z23	X24	Y24	Z24	X25	Y25	Z25	X26	Y26	Z26	X27	Y27	Z27	X28	Y28	Z28	X29	Y29	Z29	X30	Y30	Z30	X31	Y31	Z31	X32	Y32	Z32	X33	Y33	Z33	X34	Y34	Z34	X35	Y35	Z35	X36	Y36	Z36

1462	5.84400	-127.17501	1012.99866	262.27551	-307.49939	957.65027	271.84729	-329.88947	610.33484	324.20337	-361.13312	557.15594	314.08054	-396.91397	644.35657	323.02707	-419.47668	587.52954	311.97357	-416.85364	496.24640	302.19818	-418.51578	490.70889	189.81810	-415.49371	304.39081	308.72791	-435.88214	262.75497	304.62180	-471.24991	328.81729	315.90253	-484.12677	282.24091	311.72055	-534.18793	122.86555	285.94379	-547.42114	144.32182	208.31920	-488.64081	56.92002	250.95651	-679.98169	119.60846	300.86670	-697.10779	153.40213	247.06805	-680.88806	131.06631	207.15263	-118.11732	1012.98425	151.37244	-276.04221	960.63507	67.98252	-52.06281	621.70880	83.21091	-35.10913	564.00641	99.60579	-109.82185	603.01105	59.12704	-101.39166	542.33386	69.57947	-78.31842	475.55051	92.54486	-76.20007	499.74481	203.36942	56.52328	321.03516	95.86288	65.23046	275.12311	100.46669	0.16335	299.60019	84.35595	16.46934	259.89722	91.00995	62.44472	113.14282	125.18903	48.17133	114.33374	205.04272	137.21588	81.52985	162.09102	-67.65405	50.09667	195.53337	-93.54515	61.07481	157.13637	-36.53878	38.50189	92.85481
1463	5.84800	-133.38577	1011.38977	262.86890	-313.76480	956.41315	272.03104	-334.17712	608.21942	324.48807	-365.06210	554.85693	314.43823	-401.24268	642.16669	324.28354	-423.64429	584.80743	312.78931	-421.05206	493.98773	302.55814	-422.34821	488.34241	189.85921	-423.50677	302.31699	308.85101	-444.58722	261.29761	305.26523	-478.65887	327.81323	316.12500	-492.36310	281.49106	311.91547	-545.82312	123.47066	286.13626	-558.38507	144.73613	207.94470	-501.68234	56.26147	251.50989	-692.48932	124.32908	300.16214	-707.98309	157.23532	246.40625	-692.14410	134.12997	206.79753	-124.02675	1011.77850	152.07962	-281.85733	959.76752	68.09782	-56.60431	621.64545	83.79305	-39.52871	563.94934	100.22917	-114.10884	602.72498	59.33747	-105.38963	542.01660	69.75620	-82.07563	475.26614	92.62749	-80.85564	499.30307	203.54523	54.15525	321.89349	96.35155	63.33329	276.09912	100.91430	-1.96107	300.02533	84.55539	14.71294	260.45135	91.15982	61.79616	113.92927	125.36189	47.25653	115.03305	205.25914	137.00322	82.77364	162.19850	-68.02576	50.01039	195.56741	-93.85730	60.81170	157.09404	-36.56053	38.53293	92.85140
1464	5.85200	-139.60382	1009.91046	263.52255	-320.04251	955.16803	272.34586	-338.45923	606.15668	324.79523	-369.17807	552.38251	314.87222	-405.72849	639.57172	325.03992	-427.79013	582.03473	313.67255	-425.41254	491.78177	302.94562	-426.04883	486.04218	190.09459	-431.26477	300.44894	309.05014	-453.24115	259.82764	305.42944	-486.02319	326.89896	316.31851	-500.56119	280.82733	312.03320	-557.54150	123.51385	286.02631	-568.77844	145.30078	207.88216	-514.30322	55.68195	252.00288	-703.42523	127.74395	299.64752	-718.44470	160.82767	245.85757	-702.88123	137.12675	206.42334	-130.04991	1010.48560	152.78172	-288.07800	958.85461	67.88082	-61.29466	621.62152	84.41514	-43.98921	564.00067	100.81274	-118.42455	602.47668	59.50386	-109.44486	541.76263	69.86648	-85.93284	475.05859	92.70770	-85.52295	498.97595	203.76369	51.79415	322.81604	96.77943	61.29123	277.07114	101.32806	-4.11410	300.46402	84.70338	12.84861	261.04440	91.29482	61.26131	114.83314	125.43999	46.39907	115.78044	205.40829	136.21492	83.69617	162.29308	-68.26731	49.99670	195.49191	-94.07361	60.67639	157.04013	-36.63050	38.55749	92.86008
1465	5.85600	-145.74695	1008.43103	264.12015	-326.37610	954.13513	272.45520	-342.69211	604.13306	325.07767	-372.97287	550.20679	315.33246	-410.48981	636.79749	325.55362	-431.90543	579.33752	314.51007	-429.73297	489.66821	303.38715	-429.93445	483.78522	190.33775	-438.94366	298.63385	309.28549	-461.65582	258.36276	305.56415	-493.26208	325.99197	316.41376	-508.53162	280.18729	312.13492	-568.50830	123.97334	285.73318	-579.48145	145.15417	207.86024	-526.31219	55.36095	252.28719	-713.74622	130.75096	299.10913	-728.33105	164.22874	245.25900	-713.02490	139.91924	206.06505	-135.96567	1009.33905	153.47284	-293.73575	958.04517	68.27525	-66.06856	621.58850	85.04144	-48.50574	564.09198	101.39318	-122.75063	602.22638	59.72245	-113.62332	541.51251	69.93008	-91.03916	476.16367	90.81306	-90.38503	498.49356	203.84550	49.23833	323.75571	97.18575	59.16192	278.02191	101.74514	-6.25085	301.10410	84.80448	11.02493	261.62115	91.50366	60.45640	115.74594	125.64536	45.45059	116.61629	205.55405	135.94524	85.36895	162.45761	-68.57823	49.96230	195.38898	-94.43353	60.46643	156.99870	-36.68877	38.61144	92.88132
1466	5.86000	-152.10703	1006.86713	264.78040	-332.73804	952.96021	272.68774	-346.97137	602.12360	325.42871	-376.84702	548.03406	315.29901	-414.91354	634.39435	326.49744	-436.06381	576.68384	315.41452	-434.04477	487.58133	303.74985	-433.59280	481.50534	190.68114	-446.43924	296.89590	309.68484	-469.92178	256.88864	305.78424	-500.38870	325.11813	316.53629	-516.34113	279.55685	312.19351	-578.72083	124.66107	285.57089	-589.21082	145.61784	207.60059	-537.75299	55.10107	252.58150	-723.61072	133.00612	298.66327	-737.44818	167.27374	244.86388	-723.26068	142.84518	205.47583	-142.01686	1008.07660	154.21371	-299.70557	957.22729	68.43216	-70.90829	621.46576	85.71719	-53.19995	564.05597	102.01054	-127.16322	601.96198	60.01956	-117.90873	541.28998	69.95443	-95.27232	475.83716	90.96266	-95.52606	497.87311	203.86845	46.59136	324.73300	97.64389	57.05124	279.08133	102.12921	-8.54420	301.61844	84.98448	9.06361	262.28241	91.64676	59.66845	116.73516	125.73197	44.59332	117.47187	205.60933	135.06599	86.54885	162.61177	-68.82485	49.90863	195.33096	-94.78562	60.22568	156.95169	-36.75486	38.66259	92.89394
1467	5.86400	-158.38959	1005.45319	265.41574	-338.85962	951.70068	273.05341	-351.32474	600.23065	325.94272	-380.82455	545.94635	315.93256	-419.52151	631.81891	327.13297	-440.25317	574.06482	316.29120	-438.46588	485.53152	304.20529	-437.34369	479.41498	190.83957	-453.81921	295.26230	310.08472	-477.87485	255.60915	305.68182	-507.38135	324.35226	316.66052	-524.03070	279.02390	312.25363	-588.44897	125.35976	285.30576	-598.55719	146.08588	207.34688	-548.06635	55.00910	252.98643	-733.92468	136.68864	298.61682	-747.06940	170.53621	243.97711	-732.75220	145.43622	204.90363	-148.03687	1006.87500	154.99495	-305.58350	956.35522	68.53226	-75.82703	621.46283	86.40479	-57.98300	564.07709	102.67359	-131.49216	601.79791	60.36416	-122.27576	541.13678	69.94361	-99.57585	475.58606	90.75552	-100.65897	497.40372	204.01297	43.90799	325.65332	97.99973	54.74391	280.15781	102.52641	-12.01950	301.66199	86.27896	6.87999	262.94800	91.79697	58.82869	117.75980	125.88585	42.48951	117.67348	204.82767	134.70898	88.23851	162.68929	-68.78996	49.76701	195.86565	-95.22058	59.97010	156.84479	-36.81596	38.72226	92.89522
1468	5.86800	-164.71027	1004.02521	266.05099	-345.37094	950.73267	273.11938	-355.67456	598.46252	326.42856	-384.70453	543.93115	316.65628	-424.21997	629.34503	327.74362	-444.44180	571.61395	317.22025	-443.01410	483.64258	304.59332	-441.08276	477.34384	191.21011	-461.19510	293.69849	310.46762	-485.60324	254.31758	305.91351	-514.24548	323.58536	316.75479	-529.31287	276.29523	312.93613	-597.88831	125.85294	284.96768	-607.38782	146.57909	206.96883	-559.10852	54.78493	252.43478	-743.00702	139.27473	298.19144	-755.73596	173.11974	243.42625	-741.79993	147.49582	204.50816	-154.08258	1005.67468	155.68697	-311.24573	955.47260	68.72691	-80.89672	621.41290	87.02882	-62.88540	564.04132	103.24430	-136.80811	601.59027	60.02198	-126.80205	540.90381	69.95399	-103.91536	475.32971	90.69093	-105.93429	496.83392	204.10506	41.05990	326.68896	98.40359	52.25865	281.14185	102.80240	-14.54946	302.13214	86.36592	4.73425	263.58594	91.89937	57.96980	118.90695	125.99350	41.39430	118.65558	204.79938	133.72067	89.56548	162.80707	-69.22601	49.79195	195.77986	-95.58348	59.72060	156.76796	-36.88655	38.76599	92.91568
1469	5.87200	-171.10187	1002.65222	266.67365	-351.73767	949.52393	273.40598	-360.21896	596.67047	326.95825	-388.87152	541.91296	317.47842	-428.80417	627.21423	328.39178	-449.15683	568.61853	318.10413	-447.46805	481.78635	305.01898	-444.84567	475.43320	191.40831	-468.32458	292.33618	310.96124	-493.18274	253.19427	306.26297	-521.07916	322.83685	316.78644	-537.18866	276.35406	312.62094	-606.84741	126.21107	284.62381	-615.89410	146.92839	206.64680	-568.83929	54.55474	252.26944	-751.77515	141.44174	297.71985	-763.95007	175.31070	242.89293	-750.58295	149.22438	203.78033	-160.34821	1004.47314	156.49234	-317.25449	954.57867	68.65340	-86.03981	621.36346	87.74072	-67.90024	564.02808	103.95151	-141.54826	601.35541	60.12495	-131.44171	540.69653	69.95817	-108.44243	475.01218	90.65849	-111.39821	496.22592	204.12192	38.06393	327.68723	98.75360	49.73943	282.33975	103.21136	-17.25924	302.58337	86.45338	2.43612	264.29675	91.97643	57.02267	120.05740	125.96709	40.19177	119.58362	204.86024	133.07047	90.90083	162.86374	-69.47071	49.77984	195.77022	-95.94718	59.46552	156.68288	-36.96552	38.80947	92.92873
1470	5.87600	-177.53638	1001.31940	267.29434	-358.34082	948.63324	273.47913	-364.79895	595.08813	327.48489	-393.07599	540.14813	318.35956	-433.58264	625.29034	329.08630	-453.55939	566.49304	319.01660	-452.15347	480.08966	305.46317	-448.74820	473.45721	191.81152	-475.16968	291.00677	311.43112	-500.47766	252.23711	306.55728	-527.61493	322.11978	316.81055	-544.55377	276.12646	312.63156	-615.25244	126.31956	284.20093	-623.89209	147.14795	206.31464	-578.08582	54.36678	251.86998	-760.02454	143.14316	297.33310	-771.92383	177.10194	242.31577	-758.44861	150.73883	203.53473	-166.60518	1003.37305	157.20464	-323.49866	953.69879	68.81828	-91.41345	621.28113	88.39903	-73.00517	564.02979	104.69175	-146.57280	601.10925	60.21833	-136.11868	540.46118	69.91048	-111.14152	473.72348	91.58670	-116.96431	495.54828	204.12090	34.96051	328.77225	99.06235	47.14541	283.52972	103.45376	-20.13176	303.07108	86.49330	0.02602	264.99344	92.03519	56.06939	121.25739	126.04487	38.86055	120.60352	204.92422	132.15697	92.48525	162.95738	-69.79850	49.77636	195.75613	-96.30941	59.20613	156.57816	-37.07345	38.85690	92.95668
1471	5.88000	-183.95543	1000.14111	267.90765	-364.69070	947.46820	273.62152	-369.52682	593.61224	327.88916	-397.48172	538.37177	319.17828	-438.41782	623.36359	329.52966	-457.97534	564.42328	319.78577	-456.86807	478.47238	305.83884	-452.75967	471.72867	192.08496	-482.00058	289.80856	311.84558	-507.50262	251.16388	306.83292	-534.12292	321.34622	316.74301	-551.62982	275.88116	312.26447	-623.00226	126.22275	283.81671	-631.50061	147.29970	205.97658	-586.41620	53.96517	251.34094	-767.72638	144.24974	296.92862	-779.05072	178.39024	242.07857	-765.94043	152.03236	203.27831	-172.96732	1002.20221	157.93265	-329.60751	952.78259	68.77386	-96.87994	621.14337	89.13139	-78.21275	564.08478	105.35403	-151.63377	600.84949	60.31190	-141.06216	540.13080	69.77877	-117.78491	474.31915	90.51380	-122.64654	494.91763	204.06192	31.75489	329.84320	99.23888	44.34983	284.72229	103.67299	-23.02448	303.62140	86.49168	-2.53992	265.73065	92.11707	54.92058	122.48919	126.08061	37.78375	121.69173	204.84302	131.41800	94.04294	163.01361	-70.11276	49.74339	195.72491	-96.71304	58.88330	156.44067	-37.20342	38.90821	92.96828
